<?xml version="1.0" standalone="no"?>
<!DOCTYPE svg PUBLIC "-//W3C//DTD SVG 1.1//EN" "http://www.w3.org/Graphics/SVG/1.1/DTD/svg11.dtd" >
<!--
2013-9-30: Created.
-->
<svg>
<metadata>
Created by iconfont
</metadata>
<defs>

<font id="iconfont" horiz-adv-x="1024" >
  <font-face
    font-family="iconfont"
    font-weight="500"
    font-stretch="normal"
    units-per-em="1024"
    ascent="896"
    descent="-128"
  />
    <missing-glyph />
    
    <glyph glyph-name="shezhi" unicode="&#58883;" d="M848.2028 271.362c61.7667 0 111.9928 50.2538 111.9928 111.9928 0 61.7667-50.2262 111.9949-111.9928 111.9949l-19.414016 0c-3.9373 11.1831-8.448 22.1194-13.4779 32.7014l13.6704 13.698c21.0811 21.0801 32.7025 49.2165 32.7025 79.1828 0 29.995-11.6214 58.1028-32.7025 79.1839-21.0801 21.1098-49.2165 32.7035-79.1839 32.7035-29.9704 0-58.1048-11.5937-79.1818-32.7035l-13.6704-13.6714c-10.6107 5.033-21.5214 9.5437-32.7311 13.481l0 19.412992c0 61.7656-50.2292 111.9939-111.9949 111.9939-61.7636 0-111.9928-50.2282-111.9928-111.9939l0-19.412992c-11.2118-3.9373-22.1225-8.448-32.7322-13.481l-13.6714 13.6714c-21.077 21.1098-49.2124 32.7035-79.1828 32.7035-29.9663 0-58.0987-11.5937-79.1839-32.7035-21.076-21.0801-32.7014-49.1889-32.7014-79.1839 0-29.9674 11.6255-58.1028 32.7014-79.1828l13.6714-13.6704c-5.0289-10.6097-9.5406-21.5194-13.4779-32.7291l-19.414016 0c-61.7636 0-111.9928-50.2282-111.9928-111.9949 0-61.739 50.2292-111.9928 111.9928-111.9928l19.414016 0c3.9373-11.2118 8.449-22.1215 13.4779-32.7291l-13.6714-13.6714c-21.076-21.0811-32.7014-49.1909-32.7014-79.1849 0-29.996 11.6255-58.1028 32.7014-79.1828 21.0852-21.078 49.2175-32.7035 79.1839-32.7035 29.9715 0 58.1059 11.6255 79.1828 32.7035l13.6714 13.6704c10.6097-5.0309 21.5204-9.5119 32.7322-13.4789l0-19.416064c0-61.7359 50.2292-111.9928 111.9928-111.9928 61.7656 0 111.9949 50.2569 111.9949 111.9928l0 19.416064c11.2097 3.967 22.1204 8.448 32.7311 13.5045l13.6704-13.695c21.077-21.078 49.2124-32.7035 79.1818-32.7035 29.9674 0 58.1038 11.6255 79.1839 32.7035 21.0811 21.0801 32.7025 49.1868 32.7025 79.1828 0 29.994-11.6214 58.1038-32.7025 79.1849l-13.6704 13.698c5.0299 10.6076 9.5406 21.5194 13.4779 32.7025L848.202752 271.3629zM789.3873 185.3706c10.5277-10.5001 16.297-24.5555 16.297-39.594 0-15.0108-5.7692-29.0673-16.297-39.5909-21.0504-21.0278-58.1294-21.0278-79.1808 0l-43.1186 43.1452-18.4842-10.3629c-18.647-10.4172-38.826-18.7556-60.0177-24.7695l-20.3694-5.7723 0-61.057024c0-30.8675-25.1279-55.9933-55.9985-55.9933s-55.9985 25.1259-55.9985 55.9933l0 61.057024-20.3674 5.7723c-21.2183 6.0416-41.4259 14.3534-60.0156 24.7695l-18.4852 10.3363-43.1206-43.1176c-21.0534-21.0278-58.1294-21.0278-79.1828 0-10.5267 10.5236-16.2939 24.5801-16.2939 39.5909 0 15.0385 5.7672 29.0939 16.2939 39.594l43.1176 43.1165-10.3588 18.4852c-10.3916 18.5907-18.7054 38.7697-24.746 60.0412l-5.7733 20.3448-61.053952 0c-30.8695 0-55.9954 25.1279-55.9954 55.9964 0 30.8705 25.1249 55.9985 55.9954 55.9985l61.053952 0 5.7733 20.3704c6.0406 21.2449 14.3544 41.4505 24.746 60.0156l10.3588 18.4832-43.1176 43.1186c-10.5267 10.5277-16.2939 24.5811-16.2939 39.5919 0 15.0395 5.7672 29.0939 16.2939 39.5919 21.0545 21.0278 58.1304 21.0278 79.1828 0l43.1206-43.1176 18.4852 10.3608c18.5897 10.3905 38.7983 18.731 60.0156 24.746l20.3674 5.7702 0 61.056c0 30.8951 25.1279 55.9964 55.9985 55.9964s55.9985-25.1013 55.9985-55.9964l0-61.056 20.3694-5.7702c21.1917-6.016 41.3706-14.3278 60.0177-24.7716l18.4842-10.3352 43.1186 43.1176c21.0524 21.0278 58.1315 21.0278 79.1808 0 10.5277-10.498 16.297-24.5524 16.297-39.5919 0-15.0108-5.7692-29.0642-16.297-39.5919l-43.0909-43.1186 10.3076-18.4832c10.4479-18.6737 18.7832-38.8813 24.7706-60.0156l5.7733-20.3704 61.053952 0c30.8695 0 55.9974-25.1279 55.9974-55.9985 0-30.8685-25.1279-55.9964-55.9974-55.9964l-61.053952 0-5.7733-20.3448c-5.9884-21.161-14.3227-41.342-24.7706-60.0412l-10.3076-18.4852L789.3873 185.3706zM512.2181 551.3472c-92.6372 0-167.9913-75.3551-167.9913-167.9923 0-92.6351 75.3541-167.9913 167.9913-167.9913s167.9913 75.3562 167.9913 167.9913C680.2094 475.9921 604.8553 551.3472 512.2181 551.3472zM512.2181 271.362c-61.7636 0-111.9928 50.2538-111.9928 111.9928 0 61.7667 50.2292 111.9949 111.9928 111.9949 61.7656 0 111.9949-50.2282 111.9949-111.9949C624.213 321.6159 573.9848 271.362 512.2181 271.362z"  horiz-adv-x="1024" />

    
    <glyph glyph-name="zhuye" unicode="&#58885;" d="M851.13970808 432.22907624L576.17804255 718.20012683c-17.08973724 17.75363854-39.93014807 27.52658657-64.40564499 27.52658657-24.47638946 0-47.31671912-9.77294804-64.40653752-27.52658657L172.40492479 432.22907624c-28.36664644-29.51658642-24.71900311-55.03158944-20.03112335-65.68938757 3.33768211-7.56110683 14.63617497-28.34417019 47.13812626-28.3441702h40.30651565v-219.9949732c0-49.94652115 35.90698102-96.97494388 86.91451084-96.97494388h46.25403244 70.79688668v51.6938749V254.04451491999998c0 24.96161676-3.78136482 38.86905824 21.73363821 38.86905825h46.25486333 46.25403244c25.51500303 0 21.73363821-13.9074415 21.73363821-38.86905825v-181.12506785-51.69387488h70.79605579 46.25486333c51.00842239 0 86.91451084 47.02842272 86.91451084 96.97494387v219.9949732h40.30651566c32.5011399 0 43.79955161 20.78387478 47.13893768 28.34417019C875.85708836 377.19748678999997 879.50635452 402.71248982 851.13970808 432.22907624zM824.03189375 383.47655497999995h-34.71295838-23.12618533-27.79246841v-265.27603244c0-24.96242816-16.09599503-51.69390736-41.58860296-51.69390735h-71.72582266V254.04451491999998c0 49.94570975-16.02791717 84.15009476-67.05873467 84.15009476h-46.25403243-46.25486334c-51.02919467 0-67.05873467-34.20446616-67.05873466-84.15009476v-187.53788352h-71.72499178c-25.49252679 0-41.58941439 26.73139804-41.58941438 51.69390737V383.47653876000004h-27.7924684-23.12701622-34.71295837c-0.79599993 0-1.52554483 3.11746357-2.18855356 3.1615235 1.56952362 2.74112843 4.26748468 9.68401676 8.75591816 14.34950138l275.00491405 285.77241574c8.20342441 8.55566047 19.78769831 13.7961151 31.0420501 13.68560012 11.23195667 0.11051496 22.13326101-5.12993965 30.33498146-13.68560012l274.98251895-285.77241573c4.51090974-4.66548463 7.20797822-11.60837297 8.77750184-14.34950139C825.55662715 386.59401854 824.82789367 383.47655497999995 824.03189375 383.47655497999995z"  horiz-adv-x="1024" />

    
    <glyph glyph-name="shanchu" unicode="&#58880;" d="M344.4593 104.61800000000005c15.4235 0 27.902 12.4795 27.902 27.902V439.441408c0 15.4225-12.4795 27.902-27.902 27.902-15.4225 0-27.902-12.4805-27.902-27.902v-306.92249599999997C316.5573 117.09640000000002 329.0368 104.61800000000005 344.4593 104.61800000000005zM511.872 104.61800000000005c15.4235 0 27.902 12.4795 27.902 27.902V439.441408c0 15.4225-12.4795 27.902-27.902 27.902s-27.902-12.4805-27.902-27.902v-306.92249599999997C483.969 117.09640000000002 496.4485 104.61800000000005 511.872 104.61800000000005zM679.2837 104.61800000000005c15.4235 0 27.902 12.4795 27.902 27.902V439.441408c0 15.4225-12.4795 27.902-27.902 27.902s-27.902-12.4805-27.902-27.902v-306.92249599999997C651.3818 117.09640000000002 663.8602 104.61800000000005 679.2837 104.61800000000005zM818.7935 746.3639000000001H703.2340479999999c-12.4795 48.0113-55.8039 83.7059-107.6572 83.7059H428.16512000000006c-51.8533 0-95.1777-35.6946-107.6572-83.7059H204.949504c-61.5526 0-111.6078-50.0828-111.6078-111.6078v-27.902976h27.901952v-27.901952h55.803904v-530.138112c0-61.526 50.0552-111.6078 111.6078-111.6078h446.432256c61.5547 0 111.6078 50.0818 111.6078 111.6078V578.952192h55.803904v27.901952h27.901952v27.902976C930.4013 696.2821 880.3482 746.3639000000001 818.7935 746.3639000000001zM428.1651 774.2659h167.411712c20.5445 0 38.3652-11.308 48.0389-27.902H380.12723200000005C389.801 762.9578 407.6206 774.2659 428.1651 774.2659zM790.8915 48.81410000000005c0-30.7896-25.0399-55.8039-55.8039-55.8039H288.65536000000003c-30.763 0-59.6726 25.0143-59.6726 55.8039l3.8687 530.1381h558.040064V48.814080000000104zM149.1446 634.7561000000001c0 30.7896 25.0419 55.8039 55.8039 55.8039H818.793472c30.7651 0 55.8039-25.0143 55.8039-55.8039H149.144576z"  horiz-adv-x="1024" />

    
    <glyph glyph-name="mimasuo" unicode="&#59466;" d="M768 512.704l-62.976 0L705.024 610.24C705.024 732.48 604.16 832 480.32 832c-123.84 0-224.64-99.52-224.64-221.76l0-97.536L192 512.704c-70.656 0-128-57.344-128-128l0-320c0-70.656 57.344-128 128-128l576 0c70.656 0 128 57.344 128 128l0 320C896 455.36 838.656 512.704 768 512.704zM319.872 610.24c0 87.296 72 158.4 160.448 158.4 88.512 0 160.512-71.04 160.512-158.4l0-97.536L319.872 512.704 319.872 610.24zM832 64.704c0-35.392-28.608-64-64-64L192 0.704c-35.392 0-64 28.608-64 64l0 320c0 35.392 28.608 64 64 64l576 0c35.392 0 64-28.608 64-64L832 64.704zM480 384.704c-52.992 0-96-28.608-96-64 0-27.84 26.816-51.264 64-60.096l0-99.904c0-17.664 14.336-32 32-32s32 14.336 32 32L512 260.608c37.184 8.832 64 32.256 64 60.096C576 356.032 532.992 384.704 480 384.704z"  horiz-adv-x="1024" />

    
    <glyph glyph-name="yonghutouxiang" unicode="&#59473;" d="M959.68-25.024c-15.232 181.696-139.648 331.968-307.84 386.624 70.464 45.632 117.248 124.48 117.248 214.464C769.152 717.376 654.208 832 512.512 832 370.752 832 255.808 717.376 255.808 576.064c0-89.984 46.784-168.832 117.248-214.528-168.192-54.592-292.544-204.864-307.84-386.56-0.192-3.456-0.64-5.44 0-10.176C66.496-51.2 80.64-64 96.704-64c17.92 0 32.064 14.656 32.064 32 16.704 197.76 182.272 351.936 383.744 351.936 201.408 0 366.976-154.176 383.68-351.936 0-17.344 14.144-32 32.064-32 16.064 0 30.208 12.8 31.424 28.8C960.32-30.464 959.936-28.416 959.68-25.024zM320 576.064C320 682.048 406.208 768 512.512 768s192.448-85.952 192.448-191.936c0-106.048-86.144-192-192.448-192S320 470.016 320 576.064z"  horiz-adv-x="1024" />

    
    <glyph glyph-name="xia" unicode="&#58893;" d="M492.516 136.523l-450.066 450.066c-10.342 10.254-10.342 27.12 0 37.484 10.364 10.32 27.207 10.32 37.506 0l432.044-432.066 432.066 432.044c10.342 10.32 27.12 10.32 37.506 0 10.342-10.364 10.342-27.229 0-37.484l-450.044-450.044c-5.346-5.367-12.48-7.789-19.527-7.593-7.047-0.196-14.138 2.226-19.484 7.593z"  horiz-adv-x="1024" />

    
    <glyph glyph-name="you" unicode="&#58894;" d="M744.383 361.838l-450.038-450.083c-10.254-10.342-27.12-10.342-37.483 0-10.32 10.386-10.32 27.229 0 37.505l432.038 432.061-432.038 432.038c-10.32 10.342-10.32 27.142 0 37.505 10.363 10.342 27.229 10.342 37.483 0l450.038-450.017c5.367-5.346 7.789-12.48 7.593-19.527 0.218-7.047-2.226-14.138-7.593-19.483z"  horiz-adv-x="1024" />

    
    <glyph glyph-name="zuo" unicode="&#58895;" d="M258.407 403.484l450.066 450.066c10.233 10.342 27.098 10.342 37.462 0 10.342-10.364 10.342-27.207 0-37.506l-432.044-432.044 432.044-432.044c10.342-10.364 10.342-27.142 0-37.506-10.364-10.364-27.229-10.364-37.462 0l-450.066 450.022c-5.389 5.346-7.811 12.48-7.614 19.527-0.196 7.047 2.247 14.138 7.614 19.484z"  horiz-adv-x="1024" />

    
    <glyph glyph-name="shang" unicode="&#58896;" d="M492.516 626.123l-450.066-450.044c-10.342-10.233-10.342-27.098 0-37.462 10.364-10.342 27.207-10.342 37.506 0l432.044 432.044 432.066-432.044c10.342-10.342 27.12-10.342 37.506 0 10.342 10.364 10.342 27.229 0 37.462l-450.044 450.044c-5.346 5.389-12.48 7.833-19.527 7.614-7.047 0.218-14.138-2.226-19.484-7.614z"  horiz-adv-x="1024" />

    
    <glyph glyph-name="dayin" unicode="&#58912;" d="M659.20055 267.656225 361.077685 267.656225c-16.464997 0-29.811979-13.346983-29.811979-29.811979S344.612689 208.031243 361.077685 208.031243l298.122865 0c16.461927 0 29.811979 13.346983 29.811979 29.811979S675.6635 267.656225 659.20055 267.656225zM897.699456 655.216052 778.450515 655.216052 778.450515 774.464993c0 32.931017-26.693965 59.624982-59.624982 59.624982L301.452703 834.089975c-32.931017 0-59.624982-26.693965-59.624982-59.624982l0-119.248941L122.57878 655.216052c-32.931017 0-59.624982-26.693965-59.624982-59.624982l0-298.122865c0-32.931017 26.693965-59.624982 59.624982-59.624982l89.436962 0L212.015741-0.65466c0-32.927947 26.693965-59.624982 59.624982-59.624982l476.996788 0c32.931017 0 59.624982 26.697035 59.624982 59.624982L808.262494 237.843222l89.436962 0c32.931017 0 59.624982 26.693965 59.624982 59.624982L957.324438 595.591069C957.324438 628.522086 930.630473 655.216052 897.699456 655.216052zM301.452703 744.653013c0 16.464997 13.346983 29.811979 29.811979 29.811979l357.747847 0c16.461927 0 29.811979-13.346983 29.811979-29.811979l0-89.436962L301.452703 655.216052 301.452703 744.653013zM748.637512 29.157319c0-16.464997-13.350053-29.811979-29.811979-29.811979L301.452703-0.65466c-16.464997 0-29.811979 13.346983-29.811979 29.811979L271.640724 327.280184c0 16.464997 13.346983 29.811979 29.811979 29.811979L718.825532 357.092164c16.461927 0 29.811979-13.346983 29.811979-29.811979L748.637512 29.157319zM897.699456 327.280184c0-16.464997-13.350053-29.811979-29.811979-29.811979L808.262494 297.468205 808.262494 357.093187c0 32.931017-26.693965 59.624982-59.624982 59.624982L271.640724 416.718169c-32.931017 0-59.624982-26.693965-59.624982-59.624982l0-59.624982-59.624982 0c-16.464997 0-29.811979 13.346983-29.811979 29.811979L122.57878 565.77909c0 16.464997 13.346983 29.811979 29.811979 29.811979l715.495694 0c16.461927 0 29.811979-13.346983 29.811979-29.811979L897.698432 327.280184zM808.262494 535.96711c-16.464997 0-29.811979-13.346983-29.811979-29.811979S791.797497 476.342128 808.262494 476.342128c16.461927 0 29.811979 13.346983 29.811979 29.811979S824.724421 535.96711 808.262494 535.96711zM659.20055 148.406261 361.077685 148.406261c-16.464997 0-29.811979-13.346983-29.811979-29.811979S344.612689 88.782302 361.077685 88.782302l298.122865 0c16.461927 0 29.811979 13.346983 29.811979 29.811979S675.6635 148.406261 659.20055 148.406261z"  horiz-adv-x="1024" />

    
    <glyph glyph-name="weixiu" unicode="&#58985;" d="M314.4061962 723.30249139c-21.9548671 0-41.91383718-3.99179402-61.87280726-13.97127906-11.97538205-5.98769103-15.96717606-21.9548671-5.98769104-31.93435214l67.8604983-67.86049826-23.95076411-23.95076411-67.86049828 67.86049828c-3.99179402 3.99179402-7.98358803 5.98769103-13.97127904 5.98769104-7.98358803 0-13.97127905-3.99179402-17.96307309-11.97538207-25.94666109-51.89332222-17.96307308-117.75792348 25.94666111-161.66765765 27.94255811-27.94255811 61.87280725-39.91794015 97.79895341-39.91794017 15.96717606 0 31.93435213 1.99589702 45.90563118 7.98358805l221.54456791-221.54456792c-17.96307308-49.8974252-5.98769103-105.78254143 31.93435213-145.70048159 27.94255811-27.94255811 61.87280725-39.91794015 97.79895339-39.91794016 21.9548671 0 41.91383718 3.99179402 61.87280725 13.97127904 11.97538205 5.98769103 15.96717606 21.9548671 5.98769102 31.93435213l-67.86049827 67.86049828 23.95076411 23.95076411 67.86049828-67.86049827c3.99179402-3.99179402 7.98358803-5.98769103 13.97127905-5.98769104 7.98358803 0 13.97127905 3.99179402 17.96307308 11.97538206 25.94666109 51.89332222 17.96307308 117.75792348-25.94666112 161.66765765-27.94255811 27.94255811-61.87280725 39.91794015-97.7989534 39.91794016-15.96717606 0-31.93435213-1.99589702-47.90152819-7.98358803l-221.54456792 221.54456791c17.96307308 49.8974252 5.98769103 105.78254143-31.93435213 145.70048158-25.94666109 25.94666109-59.87691025 39.91794015-95.80305637 39.91794018z m-25.94666112-179.63073073c9.97948503 0 19.95897009 3.99179402 27.94255811 11.97538203l23.95076412 23.95076412c15.96717606 15.96717606 15.96717606 39.91794015 0 55.88511622l-45.9056312 45.90563118c5.98769103 0 11.97538205 1.99589702 17.96307308 1.995897 25.94666109 0 51.89332222-9.97948503 69.85639527-29.9384551 27.94255811-27.94255811 35.92614614-67.86049828 23.95076411-103.78664442-5.98769103-13.97127905-1.99589702-29.93845511 9.97948504-41.91383718l221.5445679-221.5445679c7.98358803-7.98358803 17.96307308-11.97538205 27.94255811-11.97538205 3.99179402 0 9.97948503 0 13.97127905 1.995897 9.97948503 3.99179402 21.9548671 5.98769103 33.93024915 5.98769102 25.94666109 0 51.89332222-9.97948503 69.85639529-29.93845512 23.95076409-23.95076409 33.93024916-55.88511622 27.9425581-87.81946835l-45.90563118 45.90563118c-7.98358803 7.98358803-17.96307308 11.97538205-27.9425581 11.97538205-9.97948503 0-19.95897009-3.99179402-27.94255813-11.97538205l-23.95076409-23.95076408c-7.98358803-7.98358803-11.97538205-17.96307308-11.97538205-27.94255814s3.99179402-19.95897009 11.97538205-27.9425581l45.90563118-45.90563118c-5.98769103 0-11.97538205-1.99589702-17.96307307-1.99589702-25.94666109 0-51.89332222 9.97948503-69.85639528 29.93845512-27.94255811 27.94255811-35.92614614 67.86049828-23.9507641 103.78664444 5.98769103 13.97127905 1.99589702 29.93845511-9.97948505 41.91383716l-221.5445679 221.5445679c-7.98358803 7.98358803-17.96307308 11.97538205-27.94255811 11.97538205-3.99179402 0-7.98358803 0-13.97127907-1.99589701-9.97948503-3.99179402-21.9548671-5.98769103-33.93024912-5.98769102-25.94666109 0-51.89332222 9.97948503-69.85639529 29.93845512-23.95076409 23.95076409-33.93024916 55.88511622-27.94255812 87.81946835l45.90563119-45.90563119c7.98358803-7.98358803 17.96307308-11.97538205 27.94255811-11.97538203zM376.27900345 344.08205984999995c-9.97948503 0-19.95897009-3.99179402-27.94255812-11.97538207l-143.70458458-143.70458459c-15.96717606-15.96717606-15.96717606-39.91794015 0-55.88511622l55.88511622-55.88511622c7.98358803-7.98358803 17.96307308-11.97538205 27.94255811-11.97538205 9.97948503 0 19.95897009 3.99179402 27.94255811 11.97538205l143.70458459 143.70458458c15.96717606 15.96717606 15.96717606 39.91794015 0 55.88511623l-55.88511622 55.88511622c-5.98769103 7.98358803-15.96717606 11.97538205-27.94255811 11.97538207z m-85.82357136-239.50764099l-55.88511621 55.88511622 143.70458456 143.70458459 55.88511625-55.88511622-143.70458459-143.70458459zM775.45840507 675.4009632l27.94255813-27.94255813-69.85639529-69.85639527-13.97127906 13.97127904-13.97127906 13.97127906 69.85639528 69.8563953m0 47.90152819c-5.98769103 0-9.97948503-1.99589702-13.97127905-5.98769103l-97.7989534-97.7989534c-7.98358803-7.98358803-7.98358803-19.95897009 0-27.94255811l13.97127907-13.97127906-97.79895341-97.7989534c-7.98358803-7.98358803-7.98358803-19.95897009 0-27.94255811 3.99179402-3.99179402 9.97948503-5.98769103 13.97127905-5.98769104s9.97948503 1.99589702 13.97127906 5.98769104l97.79895341 97.79895341 13.97127905-13.97127907c3.99179402-3.99179402 9.97948503-5.98769103 13.97127905-5.98769103s9.97948503 1.99589702 13.97127906 5.98769103l97.7989534 97.79895339c7.98358803 7.98358803 7.98358803 19.95897009 0 27.9425581l-55.88511625 55.88511625c-1.99589702 3.99179402-7.98358803 5.98769103-13.97127904 5.98769103z"  horiz-adv-x="1024" />

    
    <glyph glyph-name="import" unicode="&#59031;" d="M487 222.8v574.1h50v-574.1l208.3 208.3 35.4-35.4-268.7-268.6-268.7 268.7 35.4 35.4 208.3-208.4zM832.1 651.1v-50h74.9v-580h-790v580h74.9v50h-124.9v-680h890v680h-124.9z"  horiz-adv-x="1024" />

    
    <glyph glyph-name="export" unicode="&#59032;" d="M278.7 492.8l-35.4 35.4 268.7 268.7 268.7-268.7-35.4-35.4-208.3 208.4v-574.1h-50v574.1l-208.3-208.4zM832.1 651.1v-50h74.9v-580h-790v580h74.9v50h-124.9v-680h890v680h-124.9z"  horiz-adv-x="1024" />

    
    <glyph glyph-name="add" unicode="&#59091;" d="M197.3 698.7c-173.8-173.8-173.8-455.5 0-629.3s455.5-173.8 629.3 0 173.8 455.5 0 629.3-455.5 173.7-629.3 0zM907 384c0-51.3-9.7-101.3-28.9-148.7-19.9-49-49.1-92.9-86.8-130.6s-81.7-66.9-130.6-86.8c-47.4-19.2-97.4-28.9-148.7-28.9-51.3 0-101.3 9.7-148.7 28.9-49 19.9-92.9 49.1-130.6 86.8s-66.9 81.7-86.8 130.6c-19.2 47.4-28.9 97.4-28.9 148.7 0 51.3 9.7 101.3 28.9 148.7 19.9 49 49.1 92.9 86.8 130.6s81.7 66.9 130.6 86.8c47.4 19.2 97.4 28.9 148.7 28.9 51.3 0 101.3-9.7 148.7-28.9 49-19.9 92.9-49.1 130.6-86.8s66.9-81.7 86.8-130.6c19.2-47.4 28.9-97.4 28.9-148.7zM537 634v-225h225v-50h-225v-225h-50v225h-225v50h225v225h50z"  horiz-adv-x="1024" />

    
    <glyph glyph-name="download" unicode="&#59199;" d="M915.1 370.1h-253.1v270.9h-300v-270.8h-253.1l403.1-423.2 403.1 423.1zM662 320.1h136.4l-286.4-300.6-286.4 300.6h186.4v270.9h200v-270.8h50zM362 731h300v-50h-300zM362 821h300v-50h-300z"  horiz-adv-x="1024" />

    
    <glyph glyph-name="zongxiangbiaochi" unicode="&#58929;" d="M408.80355555 695.9786666699999h204.91377778v-614.74133334H408.80355555zM408.80355555 721.57866667h204.91377778v-25.6H408.80355555zM408.80355555 81.23733332999996h204.91377778v-25.6H408.80355555zM408.80355555 209.23733332999996h102.51377778v-25.6h-102.51377778zM408.80355555 593.46488889h102.51377778v-25.6h-102.51377778zM408.80355555 465.46488889h102.51377778v-25.6h-102.51377778zM408.80355555 337.35111111000003h102.51377778v-25.6h-102.51377778zM588.11733333 721.57866667h25.6v-665.94133334h-25.6zM408.80355555 721.57866667h25.6v-665.94133334h-25.6z"  horiz-adv-x="1024" />

    
    <glyph glyph-name="gengduo" unicode="&#60444;" d="M224 384m-80 0a80 80 0 1 1 160 0 80 80 0 1 1-160 0ZM512 384m-80 0a80 80 0 1 1 160 0 80 80 0 1 1-160 0ZM800 384m-80 0a80 80 0 1 1 160 0 80 80 0 1 1-160 0Z"  horiz-adv-x="1024" />

    
    <glyph glyph-name="baocun" unicode="&#59134;" d="M832-32H192c-52.8 0-96 43.2-96 96V704c0 52.8 43.2 96 96 96h576c8 0 16-3.2 22.4-9.6l128-128c6.4-6.4 9.6-14.4 9.6-22.4v-576c0-52.8-43.2-96-96-96zM192 736c-17.6 0-32-14.4-32-32v-640c0-17.6 14.4-32 32-32h640c17.6 0 32 14.4 32 32V627.2L755.2 736H192z m544-768H288c-17.6 0-32 14.4-32 32V252.8c0 54.4 44.8 99.2 99.2 99.2h315.2c54.4 0 99.2-44.8 99.2-99.2V0c-1.6-17.6-16-32-33.6-32z m-416 64h384V252.8c0 19.2-16 35.2-35.2 35.2H355.2c-19.2 0-35.2-16-35.2-35.2V32z m315.2 448H388.8c-46.4 0-84.8 38.4-84.8 84.8V768c0 17.6 14.4 32 32 32h352c17.6 0 32-14.4 32-32v-203.2c0-46.4-38.4-84.8-84.8-84.8zM368 736v-171.2c0-11.2 9.6-20.8 20.8-20.8h246.4c11.2 0 20.8 9.6 20.8 20.8V736H368z m208-144c-17.6 0-32 14.4-32 32v32c0 17.6 14.4 32 32 32s32-14.4 32-32v-32c0-17.6-14.4-32-32-32z"  horiz-adv-x="1024" />

    
    <glyph glyph-name="shengchan" unicode="&#58900;" d="M653.996 535.86c-132.085 0-239.399-108.052-239.399-240.853 0-132.807 107.401-240.848 239.399-240.848 132.086 0 239.405 108.041 239.405 240.848 0.088 132.724-107.407 240.853-239.405 240.853z m0-445.302c-112.041 0-203.194 91.733-203.194 204.449s91.152 204.455 203.194 204.455c112.047 0 203.194-91.739 203.194-204.455 0.088-112.716-91.065-204.449-203.194-204.449z m-493.609 87.298c-7.919 0-15.41-2.241-21.024-6.247-5.532-4.007-8.688-9.409-8.688-14.988 0-11.779 13.281-21.3 29.629-21.3H389.15c-11.832 13.41-21.704 27.611-29.277 42.476l-199.486 0.059z m0 493.445h632.329c16.431 0 29.618 9.526 29.618 21.241 0 5.637-3.062 11.04-8.594 15.046s-13.105 6.253-21.024 6.253H160.387c-16.003-0.487-28.691-9.831-28.691-21.241 0.094-11.468 12.688-20.877 28.691-21.299z m0-357.318h180.169a170.206 170.206 0 0 0 7.233 42.535H160.387c-16.431 0-29.788-9.538-29.788-21.27 0-11.785 13.357-21.265 29.788-21.265z m0 221.196c-7.919 0-15.486-2.241-21.024-6.241-5.532-4.001-8.688-9.392-8.594-15.029 0-11.756 13.275-21.27 29.618-21.27h241.786c16.595 15.997 35.824 30.234 57.446 42.54H160.387z m613.206-230.74H668.116v109.46c0 7.585-6.148 13.732-13.727 13.732-7.591 0-13.738-6.148-13.738-13.732v-123.187a13.706 13.706 0 0 1 13.738-13.732h119.204c7.585 0 13.738 6.148 13.738 13.732 0 7.579-6.153 13.727-13.738 13.727z"  horiz-adv-x="1024" />

    
    <glyph glyph-name="jilu" unicode="&#58901;" d="M482.168 71.764H293.522c-32.693 0-66.67 35.553-66.67 66.69V637.735c0 35.818 29.494 66.697 66.67 66.697h368.311c33.596 0 65.678-31.375 65.678-66.697V409.21c0-8.763 13.144-15.936 21.906-15.936s20.901 7.173 20.901 15.936V637.735c0 59.925-48.744 108.533-108.485 108.533H293.522c-59.898 0-108.492-48.771-108.492-108.533v-499.281c0-59.925 48.758-108.526 108.492-108.526h188.646c8.756 0 15.929 12.145 15.929 20.915 0 8.769-7.173 20.921-15.929 20.921z m148.454 521.9H324.32c-6.942 0-12.621-11.208-12.621-24.902s5.679-24.902 12.621-24.902h306.301c6.942 0 12.621 11.208 12.621 24.902s-5.678 24.902-12.62 24.902z m12.62-194.372c0 13.694-5.679 24.895-12.621 24.895H324.32c-6.942 0-12.621-11.201-12.621-24.895s5.679-24.909 12.621-24.909h306.301c6.943 0.001 12.621 11.215 12.621 24.909zM324.32 254.717c-6.942 0-12.621-11.208-12.621-24.902s5.679-24.902 12.621-24.902h86.07c7.064 0 12.614 11.208 12.614 24.902s-5.672 24.902-12.614 24.902h-86.07z m365.826 103.086c-95.797 0-173.464-77.674-173.464-173.471 0-95.804 77.667-173.471 173.464-173.471 95.79 0 173.45 77.667 173.45 173.471 0 95.797-77.66 173.471-173.45 173.471z m90.532-251.858c-6.1-8.81-18.191-11.004-27.001-4.904l-76.913 53.254c-5.692 3.947-8.599 10.379-8.321 16.812-0.014 0.251-0.041 0.503-0.041 0.761v93.555c0 10.719 8.688 19.407 19.407 19.407s19.4-8.688 19.4-19.407v-85.003l68.565-47.467c8.81-6.107 11.004-18.198 4.904-27.008z"  horiz-adv-x="1024" />

    
    <glyph glyph-name="dangan" unicode="&#58902;" d="M231.861 372.655h110.136v49.466H231.861v-49.466z m0 98.932h110.136v49.455H231.861v-49.455z m0 98.921h110.136v49.466H231.861v-49.466z m104.532 148.398H237.46c-27.284-0.081-49.385-22.182-49.46-49.46v-568.46c0.075-27.284 22.176-49.38 49.46-49.466h98.932c27.29 0.087 49.385 22.182 49.472 49.466v568.46c-0.086 27.278-22.181 49.379-49.471 49.46z m20.096-600.805c-0.058-24.788-15.595-35.206-34.778-35.275h-69.562c-19.183 0.069-34.726 10.487-34.778 35.275v531.33c0.052 24.788 15.595 38.101 34.778 38.17h69.562c19.183-0.069 34.721-13.382 34.778-38.17v-531.33z m101.44 254.554h110.136v49.466H457.929v-49.466z m0 98.932h110.136v49.455H457.929v-49.455z m0 98.921h110.136v49.466H457.929v-49.466zM562.46 718.906h-98.927c-27.284-0.081-49.385-22.182-49.46-49.46v-568.46c0.075-27.284 22.176-49.38 49.46-49.466h98.927c27.29 0.087 49.385 22.182 49.466 49.466v568.46c-0.08 27.278-22.176 49.379-49.466 49.46z m20.102-600.805c-0.064-24.788-15.595-35.206-34.784-35.275h-69.562c-19.183 0.069-34.721 10.487-34.778 35.275v531.33c0.058 24.788 15.595 38.101 34.778 38.17h69.562c19.189-0.069 34.721-13.382 34.784-38.17v-531.33z m101.44 254.554h110.136v49.466H684.002v-49.466z m0 98.932h110.136v49.455H684.002v-49.455z m0 98.921h110.136v49.466H684.002v-49.466zM788.54 718.906h-98.938c-27.284-0.081-49.38-22.182-49.466-49.46v-568.46c0.087-27.284 22.182-49.38 49.466-49.466h98.938c27.278 0.087 49.374 22.182 49.46 49.466v568.46c-0.087 27.278-22.182 49.379-49.46 49.46z m20.09-600.805c-0.058-24.788-15.595-35.206-34.778-35.275H704.29c-19.189 0.069-34.721 10.487-34.778 35.275v531.33c0.058 24.788 15.589 38.101 34.778 38.17h69.562c19.183-0.069 34.721-13.382 34.778-38.17v-531.33z"  horiz-adv-x="1024" />

    
    <glyph glyph-name="kaohe" unicode="&#58903;" d="M696.685 709.924h-39.929c-0.733 19.953-17.123 35.906-37.249 35.906H422.182c-20.132 0-36.516-15.953-37.249-35.906h-56.634c-52.451 0-94.975-42.511-94.975-94.95v-492.959c0-52.439 42.524-94.944 94.975-94.944h368.386c52.451 0 94.982 42.505 94.982 94.944V614.974c0 52.439-42.531 94.95-94.982 94.95z m50.889-578.401c0-33.486-27.159-60.632-60.658-60.632H338.068c-33.498 0-60.658 27.147-60.658 60.632V605.472c0 33.479 27.159 60.632 60.658 60.632h47.033c1.946-18.767 17.798-33.397 37.081-33.397h197.325c19.277 0 35.135 14.629 37.081 33.397h30.328c33.498 0 60.658-27.153 60.658-60.632v-473.949z m-58.346 100.019H495.016c-4.402 0-8.003-9.667-8.003-21.481 0-11.82 3.601-21.487 8.003-21.487h194.213c4.402 0 8.003 9.667 8.003 21.487-0.001 11.814-3.602 21.481-8.004 21.481z m0 147.033H495.016c-4.402 0-8.003-9.667-8.003-21.487 0-11.814 3.601-21.487 8.003-21.487h194.213c4.402 0 8.003 9.673 8.003 21.487-0.001 11.819-3.602 21.487-8.004 21.487z m0 154.604H495.016c-4.402 0-8.003-9.667-8.003-21.487 0-11.808 3.601-21.481 8.003-21.481h194.213c4.402 0 8.003 9.673 8.003 21.481-0.001 11.819-3.602 21.487-8.004 21.487z m-261.723 20.687l-56.542-56.548-17.276 17.276c-5.113 5.119-13.408 5.119-18.528 0-5.113-5.119-5.113-13.415 0-18.534l26.537-26.537c2.56-2.56 5.913-3.843 9.267-3.843s6.707 1.283 9.261 3.843c0.356 0.343 0.68 0.718 0.984 1.099 0.387 0.305 0.756 0.635 1.105 0.978l63.719 63.738c5.119 5.113 5.119 13.415 0 18.528-5.113 5.119-13.408 5.119-18.527 0z m-5.704-154.604l-56.542-56.548-17.27 17.276c-5.119 5.119-13.415 5.119-18.534 0-5.113-5.119-5.113-13.415 0-18.534l26.537-26.543a13.06 13.06 0 0 1 9.267-3.836c3.347 0 6.701 1.277 9.261 3.836 0.349 0.349 0.68 0.718 0.991 1.105 0.381 0.305 0.75 0.635 1.092 0.984l63.732 63.726c5.113 5.119 5.113 13.415 0 18.534-5.119 5.119-13.421 5.119-18.534 0z m0-147.027l-56.542-56.548-17.27 17.276c-5.119 5.119-13.415 5.119-18.534 0-5.113-5.119-5.113-13.415 0-18.54l26.537-26.537a13.06 13.06 0 0 1 9.267-3.836c3.347 0 6.701 1.277 9.261 3.836 0.349 0.343 0.68 0.718 0.991 1.105 0.381 0.305 0.75 0.635 1.092 0.978l63.732 63.732c5.113 5.113 5.113 13.415 0 18.534-5.119 5.119-13.421 5.119-18.534 0z"  horiz-adv-x="1024" />

    
    <glyph glyph-name="zhiban" unicode="&#58904;" d="M811.323 631.601h-62.169v-12.757c0-35.819-26.861-64.774-60.052-64.774h-12.566c-33.147 0-60.052 28.955-60.052 64.774v12.757h-210.82v-12.757c0-35.819-26.917-64.774-60.064-64.774h-12.56c-33.19 0-60.052 28.955-60.052 64.774v12.757h-62.126c-25.655 0-46.402-22.496-46.402-50.084v-458.366c0-27.637 20.748-50.041 46.402-49.998h600.461c25.605 0 46.359 22.361 46.359 50.041V581.517c0 27.539-20.704 50.084-46.359 50.084z m9.623-523.404h-619.75V535.835h619.75v-427.638zM661.323 594.231c5.535-4.131 13.132-6.729 21.536-6.729 16.801 0 30.463 10.263 30.463 22.94v46.212c0 6.286-3.392 12.048-8.97 16.186-5.492 4.162-13.089 6.705-21.493 6.705-16.808 0-30.494-10.263-30.494-22.89v-46.212c0-6.343 3.43-12.075 8.958-16.212z m14.031 22.701a10.118 10.118 0 0 1-1.286-4.958c0-5.276 3.934-9.555 8.792-9.555 4.864 0 8.798 4.279 8.798 9.555 0 1.815-0.474 3.506-1.283 4.951 4.29-1.933 7.187-5.452 7.187-9.482 0-6.126-6.618-11.057-14.702-11.057-8.127 0-14.708 4.931-14.708 11.057-0.001 4.019 2.893 7.553 7.202 9.489z m-357.644-22.72c5.566-4.137 13.132-6.735 21.585-6.735 16.845 0 30.512 10.263 30.512 22.952v46.242c0 6.292-3.405 12.042-8.939 16.186-5.504 4.168-13.107 6.711-21.542 6.711-16.851 0-30.481-10.263-30.481-22.896v-46.242c0-6.374 3.367-12.099 8.865-16.218z m14.113 22.721a10.063 10.063 0 0 1-1.295-4.959c0-5.252 3.916-9.506 8.755-9.506 4.827 0 8.749 4.254 8.749 9.506 0 1.832-0.485 3.537-1.312 4.988 4.352-1.929 7.284-5.483 7.284-9.531 0-6.132-6.588-11.07-14.708-11.07-8.102 0-14.683 4.938-14.683 11.07-0.001 4.027 2.9 7.567 7.21 9.502zM490.446 159.45l-8.687 14.677 21.714 35.647-17.368 16.764c-4.347 4.193-4.347 10.485 0 16.777h49.93c4.34-4.193 4.34-10.485 0-16.777l-17.368-16.764 21.708-35.647-6.514-14.677c71.645 4.199 125.921 27.255 125.921 54.511 0 44.032-41.249 52.411-97.693 54.517-6.514 10.479-13.027 23.063-13.027 35.641 19.541 12.578 34.736 33.541 41.249 60.803 2.173-2.099 4.34-2.099 6.508-2.099 6.52 0 10.86 4.193 10.86 10.485v25.156c0 6.292-4.34 10.491-10.86 10.491h-4.334c-4.347 50.312-39.082 90.145-80.332 90.145s-73.812-39.833-80.325-90.145c-6.514 0-10.854-4.199-10.854-10.491V375.4c0-6.286 4.34-10.479 10.854-10.479h2.167c6.52-23.063 17.368-41.933 32.568-52.417 4.34-14.677-2.179-29.355-10.86-41.933-54.271-2.093-93.347-14.677-93.347-54.511 4.342-29.354 58.619-52.411 128.09-56.61z"  horiz-adv-x="1024" />

    
    <glyph glyph-name="renshi" unicode="&#58905;" d="M877.574 245.386l-27.714 6.154c-2.16 6.904-4.973 13.517-8.231 19.872l14.996 24.97c5.598 8.96 8.418 22.123 0 30.562l-15.281 15.267c-4.112 4.133-9.648 5.869-15.225 5.869-5.786 0-11.641-1.889-16.003-4.925l-24.311-15.489c-6.307 3.278-12.892 6.078-19.74 8.3l-6.223 28.04c-1.848 10.294-10.843 21.428-22.762 21.428h-21.588c-11.926 0-19.233-11.301-21.595-21.595l-6.743-26.945c-25.547 17.439-53.406 30.469-83.039 38.795 18.281 9.12 35 21.039 49.739 35.452 37.035 36.341 57.435 84.656 57.435 136.069 0 51.392-20.4 99.715-57.435 136.035-36.98 36.223-86.073 56.157-138.237 56.157-52.17 0-101.264-19.935-138.237-56.178-4.952-4.855-9.731-10.092-14.26-15.593a164.203 164.203 0 0 1-21.414 1.417c-88.108 0-159.797-70.445-159.797-157.025 0-52.782 26.617-101.535 71.327-130.798-32.576-15.017-61.561-37.605-83.962-65.423-16.267-20.219-28.943-42.787-37.667-67.069-9.057-25.13-13.614-51.559-13.614-78.551 0-10.349 8.411-18.775 18.754-18.775 10.349 0 18.789 8.425 18.789 18.775 0 90.011 60.79 167.645 148.475 189.185 2.438-0.563 4.876-1.097 7.377-1.584a165.328 165.328 0 0 1 30.305-2.799c10.342 0 18.775 8.398 18.775 18.747 0 10.356-8.432 18.782-18.775 18.782-7.89 0-15.739 0.722-23.373 2.188-57.283 10.822-98.881 60.158-98.881 117.309 0 65.152 53.761 118.392 120.198 119.462-13.093-26.29-19.719-54.629-19.719-84.288 0-51.399 20.414-99.722 57.463-136.069 16.976-16.628 36.514-29.888 58.116-39.397-42.266-14.058-79.905-37.362-111.849-69.327-54.129-54.129-83.913-126.074-83.913-202.611 0-10.37 8.425-18.795 18.768-18.795 10.342 0 18.754 8.425 18.754 18.795 0 137.299 111.69 249.009 248.982 249.009 26.807 0 52.959-4.192 77.781-12.342l-9.503-9.503c-8.425-8.439-5.598-21.602 0-30.555l15.774-26.29c-2.952-5.973-5.578-12.114-7.606-18.559l-27.693-6.154c-10.287-1.855-21.428-10.849-21.428-22.782v-21.595c0-11.926 11.308-19.233 21.595-21.602l28.054-7.001c1.931-5.953 4.341-11.669 7.099-17.205l-15.788-26.318c-5.605-8.939-8.418-22.109 0-30.541l15.281-15.274c4.119-4.126 9.641-5.883 15.225-5.883 5.793 0 11.641 1.889 16.01 4.925l24.963 15.934c6.731-3.563 13.801-6.585 21.15-8.912l6.911-27.638c2.369-10.294 9.662-21.595 21.595-21.595h21.588c11.919 0 20.914 11.134 22.769 21.428l6.223 28.124c6.779 2.195 13.294 4.959 19.518 8.182l24.359-15.524c4.362-3.035 10.217-4.925 16.003-4.925 5.578 0 11.113 1.757 15.232 5.883l15.274 15.274c8.418 8.432 5.598 21.602 0 30.541l-15.01 25.005c3.015 5.932 5.633 12.107 7.738 18.518l28.054 7.008c10.287 2.362 21.588 9.662 21.588 21.595v21.595c0 11.934-11.127 20.929-21.421 22.783zM515.618 392.528c-87.178 0-158.123 69.389-158.123 154.671 0 29.291 8.439 57.776 24.741 82.968 4.841 2.591 8.307 7.106 9.571 12.669l0.083 0.57c30.277 37.146 75.342 58.456 123.727 58.456 87.191 0 158.136-69.389 158.136-154.664 0.002-85.295-70.943-154.67-158.135-154.67z m210.967-232.097c-28.791 0-52.24 23.387-52.24 52.101s23.449 52.087 52.24 52.087 52.219-23.373 52.219-52.087c0-28.714-23.428-52.101-52.219-52.101z"  horiz-adv-x="1024" />

    
    <glyph glyph-name="baobiao" unicode="&#58906;" d="M432.872 469.98c-13.704 0-24.817-11.763-24.817-26.272v-341.6c0-14.514 11.112-26.284 24.817-26.284 13.704 0 24.811 11.769 24.811 26.284v341.6c0.001 14.509-11.106 26.272-24.811 26.272zM217.305 285.994c-13.704 0-24.817-11.769-24.817-26.277v-157.665c0-14.514 11.112-26.277 24.817-26.277s24.811 11.763 24.811 26.277V259.717c0 14.508-11.107 26.277-24.811 26.277zM802.488 469.98c-13.697 0-24.814-11.763-24.814-26.272v-341.6c0-14.514 11.117-26.284 24.814-26.284 13.702 0 24.814 11.769 24.814 26.284v341.6c0 14.509-11.111 26.272-24.814 26.272zM617.68 285.994c-13.705 0-24.811-11.769-24.811-26.277v-157.665c0-14.514 11.107-26.277 24.811-26.277 13.71 0 24.817 11.763 24.817 26.277V259.717c0.001 14.508-11.106 26.277-24.817 26.277z m224.952 424.125a28.275 28.275 0 0 1-13.369 1.837H725.467c-14.888 0-26.95-11.763-26.95-26.277 0-14.514 12.062-26.277 26.95-26.277h40.095L617.245 483.013 422.854 704.391c-5.611 5.367-13.27 8.207-21.115 7.834-7.746 0.336-15.293-2.479-20.811-7.784l-213.63-240.189c-9.913-10.754-9.477-27.199 1.009-37.436 10.486-10.237 27.342-10.685 38.389-1.034l194.708 221.745 194.665-221.64c5.772-5.623 13.475-8.145 21.127-7.777 7.852-0.442 15.53 2.385 21.127 7.777l167.933 195.574v-40.836c0-14.509 12.062-26.277 26.943-26.277 14.882 0 26.943 11.769 26.943 26.277v105.11c-0.019 10.897-7.011 20.636-17.51 24.384z"  horiz-adv-x="1024" />

    


  </font>
</defs>
</svg>
